<?xml version="1.0" standalone="no"?>
<!DOCTYPE svg PUBLIC "-//W3C//DTD SVG 20010904//EN"
 "http://www.w3.org/TR/2001/REC-SVG-20010904/DTD/svg10.dtd">
<svg version="1.0" xmlns="http://www.w3.org/2000/svg"
 width="258.000000pt" height="234.000000pt" viewBox="0 0 258.000000 234.000000"
 preserveAspectRatio="xMidYMid meet">
<metadata>
Created by potrace 1.10, written by Peter Selinger 2001-2011
</metadata>
<g transform="translate(0.000000,234.000000) scale(0.100000,-0.100000)"
fill="#000000" stroke="none">
<path d="M2014 2098 c-34 -34 -131 -98 -319 -210 -303 -181 -982 -644 -1003
-684 -29 -56 21 -134 87 -134 31 0 83 33 351 219 l315 219 40 -28 c22 -15 73
-46 114 -71 l74 -43 -189 -182 c-186 -180 -189 -182 -189 -224 0 -35 6 -47 33
-71 23 -20 43 -29 68 -29 32 0 52 17 231 188 187 179 197 187 243 193 147 20
360 229 360 355 0 28 12 44 89 116 l89 83 -173 176 -173 177 -48 -50z m196
-150 c77 -78 140 -146 140 -151 0 -13 -129 -135 -136 -128 -3 3 -4 2 -3 -4 6
-23 -36 -151 -59 -177 -8 -10 -13 -18 -10 -18 10 0 -95 -105 -138 -138 -23
-18 -51 -32 -62 -32 -12 0 -23 -4 -27 -9 -3 -5 -29 -15 -58 -21 -42 -9 -63
-21 -112 -68 -269 -255 -323 -302 -349 -302 -31 0 -66 32 -66 60 0 22 82 117
142 165 20 17 37 36 37 43 1 6 5 12 10 12 16 0 171 163 171 180 0 9 -9 26 -20
38 -21 22 -135 92 -151 92 -5 0 -9 4 -9 8 0 11 -45 32 -67 32 -17 0 -35 -11
-146 -86 -32 -21 -65 -43 -74 -49 -9 -5 -26 -18 -37 -28 -11 -10 -31 -20 -43
-23 -13 -4 -23 -10 -23 -14 0 -5 -33 -30 -72 -56 -40 -27 -75 -50 -78 -54 -3
-3 -27 -21 -55 -39 -27 -19 -53 -40 -57 -45 -4 -6 -8 -7 -8 -2 0 5 -8 2 -17
-6 -34 -30 -61 -31 -88 -4 -46 46 -31 71 90 154 34 23 64 42 67 42 7 0 45 30
84 66 12 12 25 20 28 17 3 -3 12 2 21 10 9 9 64 49 123 88 59 39 126 87 150
106 23 19 42 32 42 28 0 -3 12 6 27 20 15 14 31 25 35 25 4 0 32 16 62 35 30
19 58 35 61 35 4 0 25 13 48 29 50 34 145 91 153 91 5 0 64 40 74 50 3 3 23
14 45 26 81 42 105 58 164 111 20 18 40 33 44 33 4 0 71 -64 147 -142z"/>
<path d="M1338 1402 c-94 -65 -98 -69 -124 -135 -36 -90 -29 -105 66 -140 l72
-27 69 63 c38 34 69 64 69 67 0 3 -20 12 -45 19 -25 7 -45 16 -45 20 0 4 16
47 35 96 51 130 42 133 -97 37z m66 -24 c-4 -13 -11 -34 -17 -48 -17 -43 -15
-63 10 -87 12 -13 23 -28 23 -32 0 -19 -72 -72 -89 -66 -9 4 -29 12 -46 17
-53 19 -60 30 -44 83 15 49 41 79 110 124 54 36 62 37 53 9z"/>
<path d="M1463 1361 l-30 -79 41 -16 41 -16 43 44 44 44 -52 17 c-41 13 -50
20 -45 34 11 26 11 44 -1 48 -6 2 -25 -32 -41 -76z m51 -27 c17 -7 10 -34 -9
-34 -17 0 -28 17 -20 30 7 12 8 12 29 4z"/>
<path d="M1802 1178 c-31 -33 -31 -33 -13 -57 l19 -24 26 26 c17 17 26 37 26
57 0 39 -18 39 -58 -2z"/>
<path d="M1680 1060 c-35 -32 -62 -62 -58 -66 4 -3 28 -9 53 -12 38 -4 50 -1
70 18 13 12 26 32 29 45 6 25 -8 75 -21 75 -5 -1 -37 -27 -73 -60z"/>
<path d="M693 994 c-9 -24 15 -35 72 -32 42 3 50 6 50 23 0 17 -8 20 -58 23
-46 2 -59 0 -64 -14z"/>
<path d="M710 910 c0 -5 20 -10 45 -10 25 0 45 5 45 10 0 6 -20 10 -45 10 -25
0 -45 -4 -45 -10z"/>
<path d="M625 866 c-61 -20 -136 -60 -181 -100 -84 -72 -163 -226 -134 -261
18 -22 871 -22 889 -1 18 21 4 77 -36 143 -93 156 -231 234 -411 232 -48 0
-105 -6 -127 -13z m230 -28 c22 -5 68 -23 102 -39 94 -46 199 -168 210 -246
l4 -23 -411 0 c-347 0 -411 2 -416 14 -6 15 23 86 35 86 3 0 12 12 19 28 18
39 30 52 97 103 66 50 118 74 186 84 24 4 46 9 48 11 5 5 72 -5 126 -18z"/>
<path d="M530 448 l0 -23 225 0 225 0 0 23 0 22 -225 0 -225 0 0 -22z"/>
<path d="M312 388 c-13 -17 -48 -146 -40 -153 7 -7 959 -7 967 0 7 8 -26 135
-40 152 -16 19 -871 19 -887 1z m862 -40 c24 -38 30 -70 15 -79 -18 -11 -850
-11 -868 0 -11 7 -11 15 -1 45 6 20 19 40 28 46 10 6 174 10 414 10 l398 0 14
-22z"/>
</g>
</svg>
