<?xml version="1.0" encoding="iso-8859-1"?>
<!-- Uploaded to: SVG Repo, www.svgrepo.com, Generator: SVG Repo Mixer Tools -->
<!DOCTYPE svg PUBLIC "-//W3C//DTD SVG 1.1//EN" "http://www.w3.org/Graphics/SVG/1.1/DTD/svg11.dtd">
<svg fill="#000000" version="1.1" id="Capa_1" xmlns="http://www.w3.org/2000/svg" xmlns:xlink="http://www.w3.org/1999/xlink" 
	 width="800px" height="800px" viewBox="0 0 430 430" xml:space="preserve">
<g>
	<g>
		<path d="M214.246,380.67c91.955,0,166.5-74.546,166.5-166.501c0-91.956-74.545-166.5-166.5-166.5v172.019h-166.4
			C50.76,309.087,124.137,380.67,214.246,380.67z"/>
		<path d="M187.246,189.929V17.91c-91.957,0-166.5,74.544-166.5,166.5c0,1.848,0.041,3.685,0.1,5.519H187.246z"/>
		<path d="M367.027,62.973C326.42,22.364,272.428,0,215,0v18.836c108.164,0,196.164,87.999,196.164,196.164
			s-88,196.164-196.164,196.164S18.836,323.165,18.836,215H0c0,57.43,22.363,111.419,62.973,152.027
			C103.58,407.636,157.57,430,215,430c57.428,0,111.42-22.364,152.027-62.973S430,272.43,430,215
			C430,157.571,407.635,103.581,367.027,62.973z"/>
	</g>
</g>
</svg>
