<?xml version="1.0" standalone="no"?>
<!DOCTYPE svg PUBLIC "-//W3C//DTD SVG 20010904//EN"
 "http://www.w3.org/TR/2001/REC-SVG-20010904/DTD/svg10.dtd">
<svg version="1.0" xmlns="http://www.w3.org/2000/svg"
 width="300.000000pt" height="300.000000pt" viewBox="0 0 300.000000 300.000000"
 preserveAspectRatio="xMidYMid meet">
<metadata>
Created by potrace 1.10, written by Peter Selinger 2001-2011
</metadata>
<g transform="translate(0.000000,300.000000) scale(0.100000,-0.100000)"
fill="#000000" stroke="none">
<path d="M1564 2571 c-31 -14 -64 -60 -64 -91 0 -24 -5 -28 -41 -34 -23 -4
-75 -20 -116 -35 -263 -103 -433 -332 -467 -633 l-6 -48 736 0 736 0 -7 63
c-22 200 -111 371 -263 500 -71 60 -195 122 -289 145 -68 16 -73 19 -73 44 0
61 -87 114 -146 89z m84 -95 c3 -13 -5 -16 -42 -16 -51 0 -56 10 -25 41 18 18
23 19 42 6 12 -8 23 -22 25 -31z m-84 -41 c24 -18 53 -19 86 -1 22 12 28 12
50 -4 14 -10 55 -26 90 -35 36 -9 101 -35 145 -58 186 -97 343 -324 348 -502
l2 -60 -678 -3 c-596 -2 -678 0 -683 13 -9 23 12 127 39 195 89 218 249 358
488 424 31 9 62 23 69 31 15 18 20 18 44 0z"/>
<path d="M522 1640 c4 -19 95 -55 185 -74 353 -75 1142 -89 1608 -30 208 26
357 67 380 104 4 6 -357 11 -1085 12 -965 3 -1090 1 -1088 -12z m1905 -41
c-19 -11 -187 -34 -352 -47 -142 -12 -750 -12 -925 -1 -152 10 -349 35 -383
49 -13 5 314 9 828 9 584 0 845 -3 832 -10z"/>
<path d="M1124 1430 c-59 -5 -104 -15 -130 -28 -55 -29 -279 -261 -272 -283 2
-4 61 -67 132 -138 l129 -130 56 50 c126 113 186 128 524 129 l229 0 108 55
c59 31 148 81 197 111 176 111 217 155 157 170 -50 13 -115 -5 -299 -81 l-187
-78 -117 7 c-126 8 -330 32 -339 41 -17 16 30 28 144 35 135 8 171 17 194 45
13 15 12 19 -8 35 -28 23 -133 47 -237 55 -163 12 -192 12 -281 5z m394 -60
c91 -23 63 -35 -101 -43 -75 -4 -92 -8 -113 -28 -30 -28 -30 -40 -1 -66 26
-25 92 -38 275 -54 166 -14 209 -10 297 28 157 68 293 123 304 123 32 0 1 -33
-80 -85 -101 -65 -107 -69 -229 -130 l-85 -43 -260 -5 c-295 -5 -346 -14 -433
-75 -28 -20 -66 -47 -84 -60 l-32 -23 -102 103 c-121 120 -122 106 8 239 90
94 121 117 171 130 50 12 404 4 465 -11z"/>
<path d="M455 963 l-150 -153 195 -195 195 -195 153 153 152 152 -196 198
c-109 108 -197 196 -198 196 -1 -1 -68 -71 -151 -156z m318 -60 c81 -82 153
-156 158 -165 7 -14 0 -27 -33 -60 l-43 -43 -6 40 c-7 45 -56 95 -92 95 -33 0
-86 -49 -93 -86 -8 -42 44 -104 87 -104 16 0 29 -4 29 -8 0 -13 -71 -82 -84
-82 -12 0 -326 311 -326 323 0 14 225 237 239 237 8 0 82 -66 164 -147z m19
-190 c22 -20 24 -66 3 -83 -22 -18 -66 -15 -82 6 -41 56 27 124 79 77z"/>
</g>
</svg>
