<?xml version="1.0" encoding="UTF-8"?>
<svg version="1.1" xmlns="http://www.w3.org/2000/svg" width="512" height="512">
<path d="M0 0 C1.11822553 -0.00311998 2.23645105 -0.00623996 3.3885622 -0.00945449 C7.13767573 -0.01743511 10.88662743 -0.01111032 14.63574219 -0.00482178 C17.32324193 -0.00753173 20.01073051 -0.01102042 22.69822693 -0.01544189 C29.24336991 -0.02433448 35.78846701 -0.0224138 42.33361179 -0.01661661 C47.65800942 -0.01209652 52.98239421 -0.01148874 58.30679321 -0.01366425 C59.44434713 -0.01412394 59.44434713 -0.01412394 60.60488194 -0.01459293 C62.1456875 -0.01523241 63.68649306 -0.01588083 65.22729862 -0.01653811 C79.6780941 -0.02224181 94.12886421 -0.0156845 108.57965553 -0.00493738 C120.95757607 0.00398372 133.33545906 0.00245808 145.71337891 -0.0067749 C160.10070476 -0.01750179 174.48800831 -0.02167729 188.8753376 -0.01555037 C190.41286341 -0.01491332 191.95038922 -0.01428458 193.48791504 -0.01366425 C194.62250068 -0.01320142 194.62250068 -0.01320142 195.78000724 -0.01272924 C201.08898003 -0.01100846 206.3979386 -0.01390435 211.70690918 -0.01862335 C218.19041396 -0.02425974 224.67387037 -0.02265879 231.15736967 -0.01206186 C234.46036179 -0.00683977 237.76325782 -0.0057825 241.06625175 -0.01136017 C265.88614404 -0.04939158 288.00523302 0.90048629 307.12011719 18.87896729 C327.35488824 40.07883076 326.24150042 65.74865286 326.16474843 93.08023095 C326.15602612 96.9831896 326.15904023 100.88614261 326.16055298 104.78910828 C326.16159633 111.53380432 326.15537758 118.27846135 326.1440773 125.02314758 C326.12775019 134.77455345 326.12260696 144.52594066 326.12010132 154.27735871 C326.11573547 170.10241728 326.10245664 185.92745512 326.08349609 201.75250244 C326.06510845 217.11545712 326.0509661 232.47840615 326.04248047 247.84136963 C326.04195502 248.79001764 326.04142957 249.73866566 326.04088821 250.71606058 C326.03827793 255.47564912 326.03575056 260.23523771 326.0332644 264.99482632 C326.0125665 304.41455449 325.97737139 343.83425951 325.93261719 383.25396729 C327.01410789 383.2416935 327.01410789 383.2416935 328.1174469 383.22917175 C331.41128376 383.19651957 334.70508643 383.17631031 337.99902344 383.15631104 C339.70040466 383.13667297 339.70040466 383.13667297 341.43615723 383.11663818 C354.27733024 383.05815224 362.87310002 386.05213099 372.93261719 394.25396729 C373.56941406 394.75412354 374.20621094 395.25427979 374.86230469 395.76959229 C383.09396945 403.01345728 388.35388698 415.45725209 389.26855469 426.19927979 C389.59606424 441.25756075 386.23024633 454.06274732 375.90136719 465.50396729 C364.00690831 476.88127578 350.74690728 479.56232466 334.88548279 479.52139282 C333.59051237 479.52592394 332.29554195 479.53045505 330.96133 479.53512347 C327.38682753 479.54729829 323.81241905 479.54709955 320.23790061 479.54473472 C316.37471649 479.54432513 312.51156193 479.55537927 308.64839172 479.56484985 C301.08631715 479.58143153 293.52427376 479.58695815 285.96218251 479.58807461 C279.81073724 479.58902662 273.65930221 479.59314456 267.50786018 479.59947586 C250.04474489 479.61708211 232.58165414 479.62631593 215.11852991 479.62481491 C214.17795752 479.624735 213.23738513 479.62465509 212.26831055 479.62457275 C211.32658153 479.62449099 210.38485251 479.62440923 209.41458625 479.62432499 C194.16492253 479.62351272 178.91535773 479.64263723 163.6657226 479.67084949 C147.98530131 479.69962833 132.30492818 479.71338697 116.62447983 479.71166193 C107.83011545 479.71099966 99.03585471 479.71642013 90.24151421 479.73801804 C82.75130579 479.75629598 75.26124799 479.76052335 67.77102684 479.74699919 C63.9552996 479.74050212 60.13986072 479.74023278 56.32416153 479.75770569 C31.79324979 479.86274857 10.86857876 478.64681778 -7.75488281 460.78912354 C-22.75112653 444.34898473 -26.38333861 426.13205206 -26.32807922 404.52697754 C-26.33110378 402.84367731 -26.33499478 401.16037846 -26.33967179 399.47708201 C-26.34992064 394.87498471 -26.34777797 390.27296558 -26.3434912 385.67086196 C-26.34101844 380.69881467 -26.35004474 375.72678593 -26.35752869 370.75474548 C-26.37026055 361.02490358 -26.37207142 351.2950893 -26.36972842 341.56524047 C-26.3679441 333.65842735 -26.36969734 325.75162261 -26.37395287 317.84481049 C-26.37454805 316.71874991 -26.37514324 315.59268934 -26.37575647 314.43250571 C-26.37696823 312.1448637 -26.37818236 309.8572217 -26.37939885 307.56957969 C-26.39026768 286.13154283 -26.38811447 264.6935217 -26.382014 243.25548396 C-26.37684038 223.63821791 -26.38811319 204.02100144 -26.40711222 184.4037452 C-26.4264751 164.25636737 -26.43474966 144.10901302 -26.43098897 123.96162581 C-26.42907522 112.65193406 -26.43158183 101.34228457 -26.44570351 90.0326004 C-26.4575982 80.40928672 -26.45904337 70.78604132 -26.44691334 61.16272673 C-26.44101241 56.25249257 -26.4399589 51.34238345 -26.45191574 46.43215752 C-26.46273228 41.93808935 -26.45972181 37.4442513 -26.44565406 32.95019409 C-26.44299554 31.3238951 -26.44540973 29.69757831 -26.45338992 28.07129672 C-26.4634844 25.86086836 -26.4550847 23.65124173 -26.44211292 21.44084549 C-26.44216794 20.21309694 -26.44222295 18.98534838 -26.44227964 17.72039533 C-25.84637415 12.21044333 -24.24391188 8.43049635 -20.25488281 4.44146729 C-13.69345772 -0.0614715 -7.69798952 -0.03292873 0 0 Z M6.93261719 33.25396729 C6.86395104 82.25785704 6.81108838 131.26174192 6.7794212 180.26567032 C6.77566908 186.05099465 6.77178611 191.83631888 6.76782227 197.62164307 C6.76703533 198.77339726 6.7662484 199.92515146 6.76543763 201.1118073 C6.75238361 219.76099521 6.72872977 238.41015537 6.7011588 257.05932681 C6.67310451 276.19500336 6.65644087 295.33066537 6.6503517 314.46636164 C6.64623532 326.27415621 6.63323381 338.08187236 6.60886779 349.88964279 C6.59301033 357.98660155 6.58821686 366.08351976 6.59211306 374.18049292 C6.59403457 378.85205025 6.59108821 383.52347054 6.57500076 388.19500351 C6.56036943 392.47501089 6.55968578 396.75478946 6.5699205 401.03480752 C6.57118489 402.58006731 6.56740678 404.12534156 6.55796764 405.67057304 C6.48841751 417.76311198 7.25385288 428.1442034 15.93261719 437.25396729 C22.52659444 443.27455522 28.95441833 446.48287321 37.93261719 446.25396729 C37.94196289 445.62530762 37.95130859 444.99664795 37.9609375 444.34893799 C38.30769969 425.7648643 39.40674227 409.2041698 53.49511719 395.50396729 C62.69882632 387.62704475 72.74525768 384.10973483 84.65179443 384.0957489 C85.541343 384.09081092 86.43089156 384.08587295 87.34739614 384.08078533 C90.33380907 384.06540385 93.3202005 384.05704792 96.30664062 384.04864502 C98.44513641 384.03906701 100.5836303 384.02905698 102.72212219 384.01864624 C108.53367134 383.99158277 114.34522862 383.97058098 120.15680599 383.95064425 C126.22802657 383.92879362 132.29922204 383.90140042 138.37042236 383.87458801 C149.86984 383.82464865 161.36927157 383.77971442 172.86871648 383.73656565 C185.95926601 383.68720391 199.04979036 383.63228183 212.14031553 383.57688606 C239.07105925 383.46304692 266.00182713 383.35621207 292.93261719 383.25396729 C292.97839913 342.5136661 293.01363869 301.77336826 293.03474785 261.03304649 C293.03724925 256.22281627 293.03983789 251.4125861 293.04248047 246.60235596 C293.04300509 245.64472941 293.04352971 244.68710286 293.04407023 243.70045733 C293.05277183 228.19656583 293.06854047 212.69268918 293.08692278 197.18880648 C293.10562862 181.27931936 293.11673536 165.36984001 293.12079418 149.46034235 C293.12353781 139.6440696 293.13220214 129.8278388 293.14845012 120.01157897 C293.15902543 113.27937356 293.16221657 106.54718981 293.15961994 99.8149767 C293.15833951 95.93139696 293.16029665 92.0478905 293.17102814 88.16432381 C293.18258727 83.95038785 293.17858769 79.73660754 293.17312622 75.5226593 C293.1789519 74.29988047 293.18477759 73.07710164 293.19077981 71.81726891 C293.1491967 59.9536391 291.40066639 51.02377132 283.00683594 42.23834229 C276.3657068 36.10013361 269.41356265 33.12648747 260.28809643 33.13091946 C259.37942513 33.12892841 258.47075383 33.12693736 257.53454703 33.12488598 C256.05059635 33.12925524 256.05059635 33.12925524 254.53666687 33.13371277 C253.47883824 33.13285834 252.4210096 33.13200392 251.33112556 33.1311236 C247.78119872 33.12947451 244.23131898 33.13498089 240.68139648 33.14044189 C238.13881939 33.14072392 235.59624221 33.14056574 233.05366516 33.13999939 C227.57691027 33.13977156 222.10017058 33.14261078 216.62341881 33.14823723 C208.70497293 33.15636681 200.78653281 33.15896895 192.86808322 33.16022522 C180.02069479 33.16241344 167.17331271 33.16906732 154.32592773 33.17852783 C141.84643587 33.18770788 129.36694573 33.19478582 116.88745117 33.19903564 C115.73345431 33.19942973 115.73345431 33.19942973 114.55614438 33.19983178 C110.69660718 33.20113682 106.83706997 33.20240053 102.97753274 33.20364368 C70.96255628 33.21400914 38.94758761 33.23162123 6.93261719 33.25396729 Z M73.49511719 421.81646729 C71.31896877 425.21125882 70.80848622 427.75845306 70.83496094 431.70318604 C70.83818359 432.55074463 70.84140625 433.39830322 70.84472656 434.27154541 C70.85310547 435.15261963 70.86148438 436.03369385 70.87011719 436.94146729 C70.87462891 437.83414307 70.87914062 438.72681885 70.88378906 439.64654541 C70.89556736 441.84908715 70.91201555 444.05149328 70.93261719 446.25396729 C105.71942312 446.34552059 140.50620155 446.41600486 175.29310194 446.4582286 C179.39990995 446.46323144 183.50671773 446.46840872 187.61352539 446.47369385 C188.43111767 446.47474309 189.24870994 446.47579233 190.09107774 446.47687337 C203.32983186 446.49427912 216.5685165 446.52581774 229.80722941 446.56257847 C243.39113794 446.59998317 256.97501009 446.62220214 270.55896801 446.63032126 C278.94118184 446.63581002 287.32319932 446.6531464 295.70535272 446.68563315 C301.45313375 446.70677524 307.20081325 446.71316804 312.94863034 446.70797279 C316.26501242 446.70541049 319.58097894 446.711527 322.89731598 446.73078918 C326.49473068 446.75066163 330.09130215 446.74591541 333.68873596 446.73498535 C334.7344659 446.74663672 335.78019585 446.75828808 336.85761458 446.77029252 C343.1026084 446.71893257 346.83080482 445.9280464 351.93261719 442.25396729 C355.74011539 438.06571926 356.28505835 434.01693646 356.21386719 428.53521729 C355.63038508 423.80252908 352.80043652 421.05670017 349.43261719 417.94146729 C345.7946321 415.48582735 342.74702609 415.12966136 338.41787338 415.11974621 C337.51264333 415.11528836 336.60741327 415.11083052 335.674752 415.10623759 C334.18878107 415.10651413 334.18878107 415.10651413 332.67279053 415.10679626 C331.61737729 415.10311958 330.56196406 415.09944289 329.47456861 415.09565479 C325.92640022 415.08461272 322.37826112 415.08077322 318.83007812 415.07696533 C316.29077562 415.07070115 313.75147404 415.06405439 311.21217346 415.05705261 C303.58452142 415.03782405 295.95687453 415.02722493 288.32920444 415.01832482 C284.73596096 415.01393959 281.14271895 415.00857344 277.54947662 415.00333595 C265.60311056 414.98632658 253.65674542 414.97183223 241.71036911 414.96458721 C238.61143747 414.96267737 235.51250583 414.96075703 232.41357422 414.95880127 C231.64336548 414.95831753 230.87315675 414.95783379 230.07960835 414.95733539 C217.60159195 414.94903432 205.12367139 414.92369483 192.64569685 414.89122059 C179.83118903 414.85814268 167.01672992 414.84013785 154.20217919 414.83694297 C147.00870585 414.83477871 139.81537232 414.82604224 132.62194061 414.8004818 C125.85530465 414.77649311 119.08896377 414.77295366 112.32227898 414.78324318 C109.83906404 414.78373949 107.35583686 414.77739119 104.87265968 414.76368713 C101.48159654 414.74602001 98.09144192 414.75304983 94.70037842 414.76622009 C93.71865402 414.75525085 92.73692962 414.7442816 91.725456 414.73297995 C84.2956615 414.80260645 78.70806056 416.33619348 73.49511719 421.81646729 Z" fill="#000000" transform="translate(73.0673828125,14.74603271484375)"/>
<path d="M0 0 C1.20947481 -0.00551503 1.20947481 -0.00551503 2.44338346 -0.01114148 C5.14856173 -0.0221654 7.85370157 -0.02601995 10.55889893 -0.02983093 C12.49722414 -0.03609651 14.43554815 -0.04274339 16.37387085 -0.04974365 C22.74185349 -0.0707734 29.10983634 -0.08114429 35.47784424 -0.09111023 C37.67056542 -0.09515804 39.86328647 -0.09927497 42.05600739 -0.10346031 C52.35670069 -0.12250874 62.65738683 -0.13674112 72.95809436 -0.14507228 C84.84716482 -0.15484704 96.73604922 -0.18117435 108.62505412 -0.22157317 C117.81584352 -0.25173159 127.00657957 -0.26654086 136.1974175 -0.26985329 C141.68622802 -0.27220387 147.17483968 -0.28116574 152.66359711 -0.30631447 C157.82809355 -0.32959559 162.99226019 -0.33382816 168.1567955 -0.32355309 C170.04981712 -0.32305764 171.94285498 -0.32938049 173.83582687 -0.34310913 C176.42561286 -0.36083706 179.01421635 -0.35371788 181.60400391 -0.34057617 C182.34838046 -0.35154542 183.09275701 -0.36251466 183.85969043 -0.37381631 C189.26874835 -0.30780911 193.56601643 1.0751116 198.05596924 4.14717102 C202.22511581 9.38532953 203.60324348 13.47042524 203.05596924 20.14717102 C201.15693096 25.96365396 198.54964731 29.22500183 193.05596924 32.14717102 C189.38727818 33.37006804 186.00770008 33.2952678 182.1875 33.29434204 C181.37724877 33.29801873 180.56699753 33.30169542 179.73219323 33.30548352 C177.00775543 33.31652706 174.28335577 33.32036533 171.55889893 33.32417297 C169.60924661 33.33043709 167.65959549 33.33708385 165.70994568 33.34408569 C160.40610762 33.3614995 155.10227857 33.3720484 149.798419 33.38029122 C146.48550701 33.38544036 143.17259782 33.39151612 139.85968781 33.39780235 C129.49652262 33.41685512 119.13336457 33.43108633 108.77018523 33.43941432 C96.80355457 33.44918939 84.83710876 33.47551567 72.87054324 33.51591522 C63.62373914 33.54606266 54.37698807 33.56088188 45.13013577 33.56419533 C39.60613131 33.56654728 34.08232429 33.57552668 28.5583725 33.60065651 C23.36106197 33.6239183 18.16407918 33.628178 12.96673012 33.61789513 C11.06038893 33.61739921 9.15403171 33.62373618 7.24773979 33.63745117 C4.64222479 33.6551462 2.037889 33.64807602 -0.56762695 33.63491821 C-1.69542065 33.65137208 -1.69542065 33.65137208 -2.84599805 33.66815835 C-8.41108635 33.60045017 -11.4584397 32.20416498 -15.94403076 29.14717102 C-20.33209978 24.4126755 -21.25669754 20.70121145 -21.15496826 14.42451477 C-20.70687923 9.58681287 -18.53804315 6.47279975 -15.00653076 3.33467102 C-10.10820797 -0.16413098 -5.88859319 -0.00144117 0 0 Z" fill="#000000" transform="translate(131.94403076171875,78.85282897949219)"/>
<path d="M0 0 C0.92436859 -0.00335861 1.84873718 -0.00671722 2.80111694 -0.01017761 C5.84675452 -0.01965063 8.89233691 -0.02162884 11.93798828 -0.02270508 C14.06259178 -0.02592002 16.18719506 -0.02928427 18.3117981 -0.03279114 C22.76190708 -0.03877315 27.21199666 -0.04063197 31.66210938 -0.04003906 C37.3536529 -0.03993745 43.04507165 -0.05359265 48.73658562 -0.07081127 C53.12387662 -0.08194986 57.51113762 -0.0839577 61.89844131 -0.08342934 C63.99631302 -0.08460653 66.09418558 -0.08901363 68.1920433 -0.0967617 C71.13072108 -0.10659977 74.06913005 -0.10366853 77.0078125 -0.09765625 C78.29703613 -0.10608551 78.29703613 -0.10608551 79.61230469 -0.11468506 C86.15638388 -0.08080089 92.64318244 0.32124076 98.00830078 4.45776367 C101.97404062 8.51792588 102.73945122 11.46683999 103.00830078 17.02026367 C102.87598397 22.25066948 101.8599459 25.00853916 98.63330078 29.14526367 C92.81463026 33.33979367 88.25873712 33.72256129 81.20336914 33.6628418 C79.66547478 33.67335571 79.66547478 33.67335571 78.09651184 33.68408203 C74.72177715 33.70162673 71.34788712 33.69005209 67.97314453 33.67651367 C65.62097513 33.67920938 63.26880682 33.68309245 60.91664124 33.68811035 C55.99322879 33.69400047 51.0701071 33.68545696 46.14672852 33.66674805 C39.83940234 33.64394668 33.53275657 33.65709282 27.22545528 33.6810379 C22.37068055 33.69549803 17.51606692 33.69088902 12.66128731 33.68052673 C10.33568809 33.67786072 8.01007418 33.68112478 5.68449211 33.69044495 C2.43388027 33.700615 -0.81563206 33.68510231 -4.06616211 33.6628418 C-5.02477142 33.67093872 -5.98338074 33.67903564 -6.97103882 33.68737793 C-12.61230015 33.61588674 -15.90707735 32.93981578 -20.36669922 29.14526367 C-24.59657214 24.45810719 -25.78511407 20.7596639 -25.71435547 14.56323242 C-24.9603259 9.31891438 -21.99828483 5.44216506 -17.92919922 2.20776367 C-12.15199638 -0.18766189 -6.14788881 -0.00322645 0 0 Z" fill="#000000" transform="translate(136.36669921875,205.854736328125)"/>
</svg>

